# xmcd
#
# Track frame offsets:
#	150
#	16912
#	32699
#	50361
#	66523
#	81260
#	97572
#	111409
#	123446
#	138783
#	153295
#	169907
#	187344
#	203806
#	221768
#	237855
#	254992
#	271754
#
# Disc length: 3851 seconds
#
# Revision: 1
# Processed by: cddbd v1.5.2PL0 Copyright (c) Steve Scherf et al.
# Submitted via: audiograbber 1.83.01
#
DISCID=030f0912
DTITLE=Various Artist - Promo Only Country May 2011
DYEAR=2011
DGENRE=Country
TTITLE0=Steve Azur - Hard Road
TTITLE1=Walker Hayes - Why Wait For Summer
TTITLE2=Martina McBride - Teenage Daughters
TTITLE3=Frankie Ballard - A Buncha Girls
TTITLE4=Ashley Gearing - Five More Minutes
TTITLE5=Gloriana - Wanna Take You Home
TTITLE6=Glen Templeton - I Could Be The One
TTITLE7=Bradley Gaskin - Mr. Bartender
TTITLE8=JaneDear Girls - Shotgun Girl
TTITLE9=Heidi Newfield - Stay Up Late
TTITLE10=River Road - Good Things
TTITLE11=Little Big Town - The Reason Why
TTITLE12=Kenny Chesney - Live A Little
TTITLE13=Tim McGraw and Gwyneth Paltrow - Me And Tennessee
TTITLE14=Kip Moore - Mary Was The Marrying Kind
TTITLE15=Edens Edge - Amen
TTITLE16=Due West - When The Smoke Clears
TTITLE17=Johnny Patton - Phone In Heaven
EXTD=WOO WOO YIPEE YIPEE DING DONG BRUTHA!!!
EXTT0=
EXTT1=
EXTT2=
EXTT3=
EXTT4=
EXTT5=
EXTT6=
EXTT7=
EXTT8=
EXTT9=
EXTT10=
EXTT11=
EXTT12=
EXTT13=
EXTT14=
EXTT15=
EXTT16=
EXTT17=
PLAYORDER=
